<svg width="515" height="172" viewBox="0 0 515 172" fill="none" xmlns="http://www.w3.org/2000/svg">
<path d="M289.8 41.8C289.8 37 289.067 31.7333 287.6 26C286.133 20.2667 285.4 15.8 285.4 12.6C285.4 9.26665 286.267 6.46665 288 4.19999C289.867 1.93332 292.333 0.799988 295.4 0.799988C302.733 0.799988 306.4 6.39999 306.4 17.6C306.4 30.5333 304.6 43.3333 301 56C297.533 68.6667 293.667 79.1333 289.4 87.4C285.133 95.6667 279.867 103.933 273.6 112.2C267.333 120.467 262.8 126 260 128.8C257.2 131.6 254.333 134.4 251.4 137.2C248.6 139.867 245.8 141.2 243 141.2C238.333 141.2 235.067 138.667 233.2 133.6C232.4 131.467 231 127.6 229 122C216.467 88.6667 207.4 65.4667 201.8 52.4C196.333 39.2 192.867 30.6667 191.4 26.8C188.733 19.7333 187.4 14.6667 187.4 11.6C187.4 8.53332 188.133 5.99999 189.6 3.99999C191.067 1.86666 193.133 0.799988 195.8 0.799988C200.467 0.799988 203.933 3.53332 206.2 8.99999C207 11 208.067 14.1333 209.4 18.4C218.867 47.0667 227.533 70.9333 235.4 90C243.267 108.933 247.8 120 249 123.2C258.733 114.667 267.933 102.733 276.6 87.4C285.4 72.0667 289.8 56.8667 289.8 41.8Z" fill="#B280BF"/>
<path d="M324.255 0.799988L364.655 1.99998L405.055 0.799988C407.188 0.799988 409.055 1.53332 410.655 2.99998C412.388 4.33332 413.255 6.19999 413.255 8.59999C413.255 11 412.388 12.9333 410.655 14.4C409.055 15.7333 407.188 16.4 405.055 16.4L364.655 15.2C361.188 15.2 355.588 15.3333 347.855 15.6C347.855 17.2 347.721 20.0667 347.455 24.2C346.655 36.6 346.255 48.2 346.255 59C353.188 59.5333 359.655 59.8 365.655 59.8C371.788 59.8 377.988 59.6 384.255 59.2C390.655 58.8 394.521 58.6 395.855 58.6C397.321 58.6 398.721 59.2667 400.055 60.6C401.388 61.9333 402.055 63.6667 402.055 65.8C402.055 67.9333 401.388 69.7333 400.055 71.2C398.721 72.5333 396.988 73.2 394.855 73.2L367.055 72.2C360.121 72.2 353.188 72.4667 346.255 73C346.255 89.2667 346.521 102 347.055 111.2C347.721 120.4 348.055 125.6 348.055 126.8L407.655 125.6C409.788 125.6 411.655 126.333 413.255 127.8C414.988 129.133 415.855 131 415.855 133.4C415.855 135.8 414.988 137.733 413.255 139.2C411.655 140.533 409.788 141.2 407.655 141.2L369.255 140C363.921 140 357.588 140.2 350.255 140.6C342.921 141 338.988 141.2 338.455 141.2C335.655 141.2 333.321 140.133 331.455 138C329.721 135.867 328.855 133.733 328.855 131.6C328.855 129.467 329.121 122.067 329.655 109.4C330.321 96.7333 330.655 84.5333 330.655 72.8C330.655 60.9333 330.055 42.1333 328.855 16.4H324.255C322.121 16.4 320.188 15.7333 318.455 14.4C316.855 12.9333 316.055 11 316.055 8.59999C316.055 6.19999 316.855 4.33332 318.455 2.99998C320.188 1.53332 322.121 0.799988 324.255 0.799988Z" fill="#646060"/>
<path d="M475.781 140L445.381 141.2C442.581 141.2 440.248 140.2 438.381 138.2C436.648 136.067 435.781 133.933 435.781 131.8C435.781 129.533 436.048 122.067 436.581 109.4C437.248 96.7333 437.581 83.2667 437.581 69C437.581 54.7333 437.248 41.7333 436.581 30C436.048 18.1333 435.781 12 435.781 11.6C435.781 8.79999 436.648 6.33332 438.381 4.19999C440.248 1.93332 442.581 0.799988 445.381 0.799988C448.181 0.799988 450.448 1.93332 452.181 4.19999C454.048 6.33332 454.981 8.79999 454.981 11.6C454.981 12 454.648 18.1333 453.981 30C453.448 41.7333 453.181 53.6667 453.181 65.8C453.181 77.8 453.248 87.4667 453.381 94.8C453.648 102.133 453.981 109 454.381 115.4C454.781 121.8 454.981 125.6 454.981 126.8L506.181 125.6C508.315 125.6 510.181 126.333 511.781 127.8C513.515 129.133 514.381 131 514.381 133.4C514.381 135.8 513.515 137.733 511.781 139.2C510.181 140.533 508.315 141.2 506.181 141.2L475.781 140Z" fill="#646060"/>
<path d="M40 170L9.6 171.2C6.8 171.2 4.46667 170.2 2.6 168.2C0.866667 166.067 0 163.933 0 161.8C0 159.533 0.266667 152.067 0.8 139.4C1.46667 126.733 1.8 113.267 1.8 99C1.8 84.7333 1.46667 71.7333 0.8 60C0.266667 48.1333 0 42 0 41.6C0 38.8 0.866667 36.3333 2.6 34.2C4.46667 31.9333 6.8 30.8 9.6 30.8C12.4 30.8 14.6667 31.9333 16.4 34.2C18.2667 36.3333 19.2 38.8 19.2 41.6C19.2 42 18.8667 48.1333 18.2 60C17.6667 71.7333 17.4 83.6667 17.4 95.8C17.4 107.8 17.4667 117.467 17.6 124.8C17.8667 132.133 18.2 139 18.6 145.4C19 151.8 19.2 155.6 19.2 156.8L70.4 155.6C72.5333 155.6 74.4 156.333 76 157.8C77.7333 159.133 78.6 161 78.6 163.4C78.6 165.8 77.7333 167.733 76 169.2C74.4 170.533 72.5333 171.2 70.4 171.2L40 170Z" fill="#646060"/>
<path d="M104.88 30.8L145.28 32L185.68 30.8C187.813 30.8 189.68 31.5333 191.28 33C193.013 34.3333 193.88 36.2 193.88 38.6C193.88 41 193.013 42.9333 191.28 44.4C189.68 45.7333 187.813 46.4 185.68 46.4L145.28 45.2C141.813 45.2 136.213 45.3333 128.48 45.6C128.48 47.2 128.346 50.0667 128.08 54.2C127.28 66.6 126.88 78.2 126.88 89C133.813 89.5333 140.28 89.8 146.28 89.8C152.413 89.8 158.613 89.6 164.88 89.2C171.28 88.8 175.146 88.6 176.48 88.6C177.946 88.6 179.346 89.2667 180.68 90.6C182.013 91.9333 182.68 93.6667 182.68 95.8C182.68 97.9333 182.013 99.7333 180.68 101.2C179.346 102.533 177.613 103.2 175.48 103.2L147.68 102.2C140.746 102.2 133.813 102.467 126.88 103C126.88 119.267 127.146 132 127.68 141.2C128.346 150.4 128.68 155.6 128.68 156.8L188.28 155.6C190.413 155.6 192.28 156.333 193.88 157.8C195.613 159.133 196.48 161 196.48 163.4C196.48 165.8 195.613 167.733 193.88 169.2C192.28 170.533 190.413 171.2 188.28 171.2L149.88 170C144.546 170 138.213 170.2 130.88 170.6C123.546 171 119.613 171.2 119.08 171.2C116.28 171.2 113.946 170.133 112.08 168C110.346 165.867 109.48 163.733 109.48 161.6C109.48 159.467 109.746 152.067 110.28 139.4C110.946 126.733 111.28 114.533 111.28 102.8C111.28 90.9333 110.68 72.1333 109.48 46.4H104.88C102.746 46.4 100.813 45.7333 99.0797 44.4C97.4797 42.9333 96.6797 41 96.6797 38.6C96.6797 36.2 97.4797 34.3333 99.0797 33C100.813 31.5333 102.746 30.8 104.88 30.8Z" fill="#646060"/>
</svg>
