<svg width="372" height="135" viewBox="0 0 372 135" fill="none" xmlns="http://www.w3.org/2000/svg">
<path d="M209.583 32.4824C209.583 28.6796 209.053 24.507 207.992 19.9648C206.931 15.4225 206.401 11.8838 206.401 9.34859C206.401 6.70774 207.028 4.48944 208.281 2.69366C209.631 0.897888 211.415 0 213.633 0C218.936 0 221.588 4.43662 221.588 13.3099C221.588 23.5563 220.286 33.6972 217.683 43.7324C215.176 53.7676 212.379 62.0599 209.294 68.6092C206.208 75.1585 202.399 81.7077 197.867 88.257C193.335 94.8063 190.057 99.1901 188.032 101.408C186.007 103.627 183.934 105.845 181.812 108.063C179.787 110.176 177.762 111.232 175.737 111.232C172.362 111.232 170 109.225 168.65 105.211C168.071 103.521 167.059 100.458 165.613 96.0211C156.548 69.6127 149.991 51.2324 145.942 40.8803C141.988 30.4225 139.481 23.662 138.42 20.5986C136.492 15 135.527 10.9859 135.527 8.55634C135.527 6.12676 136.058 4.11972 137.119 2.53522C138.179 0.845072 139.674 0 141.602 0C144.977 0 147.484 2.16549 149.124 6.49648C149.702 8.08099 150.474 10.5634 151.438 13.9437C158.284 36.6549 164.552 55.5634 170.241 70.669C175.93 85.669 179.209 94.4366 180.077 96.9718C187.116 90.2113 193.769 80.757 200.037 68.6092C206.401 56.4613 209.583 44.419 209.583 32.4824Z" fill="#B280BF"/>
<path d="M234.501 0L263.718 0.950701L292.935 0C294.478 0 295.828 0.580985 296.985 1.74295C298.239 2.7993 298.865 4.27817 298.865 6.17958C298.865 8.08099 298.239 9.61268 296.985 10.7747C295.828 11.831 294.478 12.3592 292.935 12.3592L263.718 11.4085C261.211 11.4085 257.161 11.5141 251.568 11.7254C251.568 12.993 251.472 15.2641 251.279 18.5387C250.7 28.3627 250.411 37.5528 250.411 46.1092C255.425 46.5317 260.102 46.743 264.441 46.743C268.877 46.743 273.361 46.5845 277.893 46.2676C282.521 45.9507 285.317 45.7923 286.282 45.7923C287.342 45.7923 288.355 46.3204 289.319 47.3768C290.283 48.4331 290.766 49.8063 290.766 51.4965C290.766 53.1866 290.283 54.6127 289.319 55.7747C288.355 56.831 287.101 57.3592 285.559 57.3592L265.454 56.5669C260.439 56.5669 255.425 56.7782 250.411 57.2007C250.411 70.088 250.604 80.1761 250.99 87.4648C251.472 94.7535 251.713 98.8732 251.713 99.8239L294.815 98.8732C296.358 98.8732 297.708 99.4542 298.865 100.616C300.119 101.673 300.746 103.151 300.746 105.053C300.746 106.954 300.119 108.486 298.865 109.648C297.708 110.704 296.358 111.232 294.815 111.232L267.045 110.282C263.188 110.282 258.607 110.44 253.304 110.757C248 111.074 245.156 111.232 244.77 111.232C242.745 111.232 241.058 110.387 239.708 108.697C238.454 107.007 237.827 105.317 237.827 103.627C237.827 101.937 238.02 96.0739 238.406 86.0387C238.888 76.0035 239.129 66.338 239.129 57.0423C239.129 47.6408 238.695 32.7465 237.827 12.3592H234.501C232.958 12.3592 231.56 11.831 230.306 10.7747C229.149 9.61268 228.57 8.08099 228.57 6.17958C228.57 4.27817 229.149 2.7993 230.306 1.74295C231.56 0.580985 232.958 0 234.501 0Z" fill="#EEEEEE"/>
<path d="M344.085 110.282L322.099 111.232C320.074 111.232 318.387 110.44 317.037 108.856C315.783 107.165 315.157 105.475 315.157 103.785C315.157 101.989 315.349 96.0739 315.735 86.0387C316.217 76.0035 316.458 65.3345 316.458 54.0317C316.458 42.7289 316.217 32.4296 315.735 23.1338C315.349 13.7324 315.157 8.87324 315.157 8.55634C315.157 6.33803 315.783 4.3838 317.037 2.69366C318.387 0.897888 320.074 0 322.099 0C324.124 0 325.763 0.897888 327.017 2.69366C328.367 4.3838 329.042 6.33803 329.042 8.55634C329.042 8.87324 328.801 13.7324 328.319 23.1338C327.933 32.4296 327.74 41.8838 327.74 51.4965C327.74 61.0035 327.788 68.662 327.885 74.4718C328.078 80.2817 328.319 85.7218 328.608 90.7923C328.897 95.8627 329.042 98.8732 329.042 99.8239L366.07 98.8732C367.613 98.8732 368.963 99.4542 370.12 100.616C371.373 101.673 372 103.151 372 105.053C372 106.954 371.373 108.486 370.12 109.648C368.963 110.704 367.613 111.232 366.07 111.232L344.085 110.282Z" fill="#EEEEEE"/>
<path d="M28.928 134.049L6.94271 135C4.91775 135 3.23029 134.208 1.88032 132.623C0.626773 130.933 0 129.243 0 127.553C0 125.757 0.192853 119.842 0.578559 109.806C1.06069 99.7711 1.30176 89.1021 1.30176 77.7993C1.30176 66.4965 1.06069 56.1972 0.578559 46.9014C0.192853 37.5 0 32.6408 0 32.3239C0 30.1056 0.626773 28.1514 1.88032 26.4613C3.23029 24.6655 4.91775 23.7676 6.94271 23.7676C8.96767 23.7676 10.6069 24.6655 11.8605 26.4613C13.2104 28.1514 13.8854 30.1056 13.8854 32.3239C13.8854 32.6408 13.6444 37.5 13.1622 46.9014C12.7765 56.1972 12.5837 65.6514 12.5837 75.2641C12.5837 84.7711 12.6319 92.4296 12.7283 98.2394C12.9212 104.049 13.1622 109.489 13.4515 114.56C13.7408 119.63 13.8854 122.641 13.8854 123.592L32.3993 123.116L50.9132 122.641C52.456 122.641 53.806 123.222 54.9631 124.384C56.2167 125.44 56.8434 126.919 56.8434 128.82C56.8434 130.722 56.2167 132.254 54.9631 133.415C53.806 134.472 52.456 135 50.9132 135L28.928 134.049Z" fill="#EEEEEE"/>
<path d="M75.8489 23.7676L105.066 24.7183L134.283 23.7676C135.826 23.7676 137.176 24.3486 138.333 25.5106C139.587 26.5669 140.214 28.0458 140.214 29.9472C140.214 31.8486 139.587 33.3803 138.333 34.5423C137.176 35.5986 135.826 36.1268 134.283 36.1268L105.066 35.1761C102.559 35.1761 98.5091 35.2817 92.9164 35.493C92.9164 36.7606 92.82 39.0317 92.6271 42.3063C92.0485 52.1303 91.7593 61.3204 91.7593 69.8768C96.7734 70.2993 101.45 70.5106 105.789 70.5106C110.225 70.5106 114.709 70.3521 119.241 70.0352C123.869 69.7183 126.666 69.5599 127.63 69.5599C128.691 69.5599 129.703 70.088 130.667 71.1444C131.632 72.2007 132.114 73.5739 132.114 75.2641C132.114 76.9542 131.632 78.3803 130.667 79.5423C129.703 80.5986 128.45 81.1268 126.907 81.1268L106.802 80.3345C101.788 80.3345 96.7734 80.5458 91.7593 80.9683C91.7593 93.8556 91.9521 103.944 92.3378 111.232C92.82 118.521 93.061 122.641 93.061 123.592L136.164 122.641C137.707 122.641 139.056 123.222 140.214 124.384C141.467 125.44 142.094 126.919 142.094 128.82C142.094 130.722 141.467 132.254 140.214 133.415C139.056 134.472 137.707 135 136.164 135L108.393 134.049C104.536 134.049 99.9555 134.208 94.6521 134.525C89.3486 134.842 86.504 135 86.1183 135C84.0934 135 82.4059 134.155 81.0559 132.465C79.8024 130.775 79.1756 129.085 79.1756 127.394C79.1756 125.704 79.3685 119.842 79.7542 109.806C80.2363 99.7711 80.4774 90.1056 80.4774 80.8099C80.4774 71.4084 80.0434 56.5141 79.1756 36.1268H75.8489C74.3061 36.1268 72.9079 35.5986 71.6543 34.5423C70.4972 33.3803 69.9187 31.8486 69.9187 29.9472C69.9187 28.0458 70.4972 26.5669 71.6543 25.5106C72.9079 24.3486 74.3061 23.7676 75.8489 23.7676Z" fill="#EEEEEE"/>
</svg>
