<svg width="280" height="109" viewBox="0 0 280 109" fill="none" xmlns="http://www.w3.org/2000/svg">
<path d="M157.751 26.2265C157.751 23.1561 157.352 19.7872 156.553 16.1197C155.755 12.4523 155.356 9.59507 155.356 7.54812C155.356 5.41588 155.827 3.6248 156.771 2.17489C157.787 0.724962 159.13 0 160.799 0C164.791 0 166.787 3.58216 166.787 10.7465C166.787 19.0196 165.807 27.2074 163.847 35.3099C161.96 43.4124 159.855 50.1076 157.533 55.3955C155.21 60.6835 152.344 65.9714 148.932 71.2594C145.521 76.5473 143.053 80.0868 141.529 81.8779C140.005 83.669 138.445 85.4601 136.848 87.2512C135.324 88.957 133.8 89.8099 132.275 89.8099C129.735 89.8099 127.957 88.1894 126.941 84.9484C126.505 83.5837 125.743 81.1103 124.655 77.5282C117.832 56.2058 112.897 41.3654 109.848 33.007C106.873 24.5634 104.986 19.1049 104.187 16.6315C102.736 12.1111 102.01 8.87011 102.01 6.90845C102.01 4.94679 102.409 3.32629 103.207 2.04695C104.006 0.682317 105.131 0 106.582 0C109.123 0 111.01 1.74844 112.244 5.24531C112.679 6.52465 113.26 8.52895 113.985 11.2582C119.139 29.5955 123.856 44.8623 128.138 57.0587C132.421 69.1698 134.888 76.2488 135.541 78.2958C140.84 72.8372 145.848 65.2038 150.565 55.3955C155.356 45.5872 157.751 35.8642 157.751 26.2265Z" fill="#B280BF"/>
<path d="M176.506 0L198.497 0.767603L220.489 0C221.65 0 222.666 0.469091 223.537 1.40727C224.481 2.26017 224.952 3.45423 224.952 4.98944C224.952 6.52465 224.481 7.76134 223.537 8.69953C222.666 9.55243 221.65 9.97887 220.489 9.97887L198.497 9.21127C196.61 9.21127 193.562 9.29656 189.352 9.46714C189.352 10.4906 189.28 12.3243 189.135 14.9683C188.699 22.9002 188.481 30.3204 188.481 37.2289C192.256 37.57 195.776 37.7406 199.042 37.7406C202.38 37.7406 205.755 37.6127 209.166 37.3568C212.65 37.1009 214.755 36.973 215.481 36.973C216.279 36.973 217.041 37.3995 217.767 38.2523C218.493 39.1052 218.856 40.214 218.856 41.5786C218.856 42.9433 218.493 44.0947 217.767 45.0329C217.041 45.8858 216.098 46.3122 214.937 46.3122L199.804 45.6725C196.03 45.6725 192.256 45.8431 188.481 46.1843C188.481 56.5896 188.627 64.7347 188.917 70.6197C189.28 76.5047 189.461 79.831 189.461 80.5986L221.904 79.831C223.065 79.831 224.082 80.3001 224.952 81.2383C225.896 82.0912 226.368 83.2852 226.368 84.8204C226.368 86.3556 225.896 87.5923 224.952 88.5305C224.082 89.3834 223.065 89.8099 221.904 89.8099L201.001 89.0423C198.098 89.0423 194.651 89.1702 190.659 89.4261C186.667 89.6819 184.526 89.8099 184.236 89.8099C182.711 89.8099 181.441 89.1275 180.425 87.7629C179.482 86.3983 179.01 85.0336 179.01 83.669C179.01 82.3044 179.155 77.5708 179.445 69.4683C179.808 61.3658 179.99 53.5618 179.99 46.0563C179.99 38.4656 179.663 26.4398 179.01 9.97887H176.506C175.345 9.97887 174.292 9.55243 173.349 8.69953C172.478 7.76134 172.042 6.52465 172.042 4.98944C172.042 3.45423 172.478 2.26017 173.349 1.40727C174.292 0.469091 175.345 0 176.506 0Z" fill="#EEEEEE"/>
<path d="M258.988 89.0423L242.44 89.8099C240.916 89.8099 239.646 89.1702 238.63 87.8908C237.686 86.5262 237.215 85.1616 237.215 83.797C237.215 82.347 237.36 77.5708 237.65 69.4683C238.013 61.3658 238.194 52.7516 238.194 43.6256C238.194 34.4996 238.013 26.1839 237.65 18.6784C237.36 11.0876 237.215 7.16432 237.215 6.90845C237.215 5.11737 237.686 3.53951 238.63 2.17489C239.646 0.724962 240.916 0 242.44 0C243.964 0 245.198 0.724962 246.142 2.17489C247.158 3.53951 247.666 5.11737 247.666 6.90845C247.666 7.16432 247.485 11.0876 247.122 18.6784C246.831 26.1839 246.686 33.8173 246.686 41.5786C246.686 49.2547 246.722 55.4382 246.795 60.1291C246.94 64.82 247.122 69.2124 247.339 73.3063C247.557 77.4002 247.666 79.831 247.666 80.5986L275.536 79.831C276.698 79.831 277.714 80.3001 278.585 81.2383C279.528 82.0912 280 83.2852 280 84.8204C280 86.3556 279.528 87.5923 278.585 88.5305C277.714 89.3834 276.698 89.8099 275.536 89.8099L258.988 89.0423Z" fill="#EEEEEE"/>
<path d="M21.7737 108.232L5.2257 109C3.70154 109 2.4314 108.36 1.41529 107.081C0.471764 105.716 0 104.352 0 102.987C0 101.537 0.145158 96.761 0.435475 88.6584C0.798371 80.5559 0.979818 71.9417 0.979818 62.8157C0.979818 53.6898 0.798371 45.374 0.435475 37.8685C0.145158 30.2778 0 26.3545 0 26.0986C0 24.3075 0.471764 22.7297 1.41529 21.365C2.4314 19.9151 3.70154 19.1901 5.2257 19.1901C6.74986 19.1901 7.9837 19.9151 8.92723 21.365C9.94334 22.7297 10.4514 24.3075 10.4514 26.0986C10.4514 26.3545 10.2699 30.2778 9.90705 37.8685C9.61673 45.374 9.47157 53.0074 9.47157 60.7688C9.47157 68.4448 9.50786 74.6283 9.58044 79.3192C9.7256 84.0102 9.90705 88.4026 10.1248 92.4965C10.3425 96.5904 10.4514 99.0211 10.4514 99.7887L24.3866 99.4049L38.3218 99.0211C39.483 99.0211 40.4991 99.4902 41.3701 100.428C42.3136 101.281 42.7854 102.475 42.7854 104.011C42.7854 105.546 42.3136 106.782 41.3701 107.721C40.4991 108.574 39.483 109 38.3218 109L21.7737 108.232Z" fill="#EEEEEE"/>
<path d="M57.0906 19.1901L79.082 19.9577L101.074 19.1901C102.235 19.1901 103.251 19.6592 104.122 20.5974C105.065 21.4503 105.537 22.6444 105.537 24.1796C105.537 25.7148 105.065 26.9515 104.122 27.8897C103.251 28.7426 102.235 29.169 101.074 29.169L79.082 28.4014C77.195 28.4014 74.1467 28.4867 69.9371 28.6573C69.9371 29.6808 69.8645 31.5145 69.7193 34.1584C69.2838 42.0904 69.0661 49.5106 69.0661 56.419C72.8402 56.7602 76.3603 56.9307 79.6264 56.9307C82.965 56.9307 86.3399 56.8028 89.7512 56.5469C93.235 56.2911 95.3398 56.1631 96.0655 56.1631C96.8639 56.1631 97.626 56.5896 98.3518 57.4425C99.0776 58.2954 99.4405 59.4041 99.4405 60.7688C99.4405 62.1334 99.0776 63.2848 98.3518 64.223C97.626 65.0759 96.6825 65.5023 95.5212 65.5023L80.3885 64.8627C76.6143 64.8627 72.8402 65.0333 69.0661 65.3744C69.0661 75.7797 69.2113 83.9249 69.5016 89.8099C69.8645 95.6948 70.0459 99.0211 70.0459 99.7887L102.489 99.0211C103.65 99.0211 104.666 99.4902 105.537 100.428C106.481 101.281 106.952 102.475 106.952 104.011C106.952 105.546 106.481 106.782 105.537 107.721C104.666 108.574 103.65 109 102.489 109L81.586 108.232C78.6828 108.232 75.2353 108.36 71.2435 108.616C67.2516 108.872 65.1106 109 64.8202 109C63.2961 109 62.0259 108.318 61.0098 106.953C60.0663 105.588 59.5945 104.224 59.5945 102.859C59.5945 101.495 59.7397 96.761 60.03 88.6584C60.3929 80.5559 60.5744 72.752 60.5744 65.2465C60.5744 57.6557 60.2478 45.6299 59.5945 29.169H57.0906C55.9293 29.169 54.8769 28.7426 53.9334 27.8897C53.0624 26.9515 52.6269 25.7148 52.6269 24.1796C52.6269 22.6444 53.0624 21.4503 53.9334 20.5974C54.8769 19.6592 55.9293 19.1901 57.0906 19.1901Z" fill="#EEEEEE"/>
</svg>
