<svg width="515" height="171" viewBox="0 0 515 171" fill="none" xmlns="http://www.w3.org/2000/svg">
<path d="M289.8 41C289.8 36.2 289.067 30.9333 287.6 25.2C286.133 19.4667 285.4 15 285.4 11.8C285.4 8.46667 286.267 5.66667 288 3.4C289.867 1.13333 292.333 0 295.4 0C302.733 0 306.4 5.6 306.4 16.8C306.4 29.7333 304.6 42.5333 301 55.2C297.533 67.8667 293.667 78.3333 289.4 86.6C285.133 94.8667 279.867 103.133 273.6 111.4C267.333 119.667 262.8 125.2 260 128C257.2 130.8 254.333 133.6 251.4 136.4C248.6 139.067 245.8 140.4 243 140.4C238.333 140.4 235.067 137.867 233.2 132.8C232.4 130.667 231 126.8 229 121.2C216.467 87.8667 207.4 64.6667 201.8 51.6C196.333 38.4 192.867 29.8667 191.4 26C188.733 18.9333 187.4 13.8667 187.4 10.8C187.4 7.73334 188.133 5.2 189.6 3.20001C191.067 1.06667 193.133 0 195.8 0C200.467 0 203.933 2.73333 206.2 8.2C207 10.2 208.067 13.3333 209.4 17.6C218.867 46.2667 227.533 70.1333 235.4 89.2C243.267 108.133 247.8 119.2 249 122.4C258.733 113.867 267.933 101.933 276.6 86.6C285.4 71.2667 289.8 56.0667 289.8 41Z" fill="#B280BF"/>
<path d="M324.255 0L364.655 1.2L405.055 0C407.188 0 409.055 0.733332 410.655 2.2C412.388 3.53334 413.255 5.40001 413.255 7.80001C413.255 10.2 412.388 12.1333 410.655 13.6C409.055 14.9333 407.188 15.6 405.055 15.6L364.655 14.4C361.188 14.4 355.588 14.5333 347.855 14.8C347.855 16.4 347.721 19.2667 347.455 23.4C346.655 35.8 346.255 47.4 346.255 58.2C353.188 58.7333 359.655 59 365.655 59C371.788 59 377.988 58.8 384.255 58.4C390.655 58 394.521 57.8 395.855 57.8C397.321 57.8 398.721 58.4667 400.055 59.8C401.388 61.1333 402.055 62.8667 402.055 65C402.055 67.1333 401.388 68.9333 400.055 70.4C398.721 71.7333 396.988 72.4 394.855 72.4L367.055 71.4C360.121 71.4 353.188 71.6667 346.255 72.2C346.255 88.4667 346.521 101.2 347.055 110.4C347.721 119.6 348.055 124.8 348.055 126L407.655 124.8C409.788 124.8 411.655 125.533 413.255 127C414.988 128.333 415.855 130.2 415.855 132.6C415.855 135 414.988 136.933 413.255 138.4C411.655 139.733 409.788 140.4 407.655 140.4L369.255 139.2C363.921 139.2 357.588 139.4 350.255 139.8C342.921 140.2 338.988 140.4 338.455 140.4C335.655 140.4 333.321 139.333 331.455 137.2C329.721 135.067 328.855 132.933 328.855 130.8C328.855 128.667 329.121 121.267 329.655 108.6C330.321 95.9333 330.655 83.7333 330.655 72C330.655 60.1333 330.055 41.3333 328.855 15.6H324.255C322.121 15.6 320.188 14.9333 318.455 13.6C316.855 12.1333 316.055 10.2 316.055 7.80001C316.055 5.40001 316.855 3.53334 318.455 2.2C320.188 0.733332 322.121 0 324.255 0Z" fill="#EEEEEE"/>
<path d="M475.781 139.2L445.381 140.4C442.581 140.4 440.248 139.4 438.381 137.4C436.648 135.267 435.781 133.133 435.781 131C435.781 128.733 436.048 121.267 436.581 108.6C437.248 95.9333 437.581 82.4667 437.581 68.2C437.581 53.9333 437.248 40.9333 436.581 29.2C436.048 17.3333 435.781 11.2 435.781 10.8C435.781 8 436.648 5.53333 438.381 3.4C440.248 1.13333 442.581 0 445.381 0C448.181 0 450.448 1.13333 452.181 3.4C454.048 5.53333 454.981 8 454.981 10.8C454.981 11.2 454.648 17.3333 453.981 29.2C453.448 40.9333 453.181 52.8667 453.181 65C453.181 77 453.248 86.6667 453.381 94C453.648 101.333 453.981 108.2 454.381 114.6C454.781 121 454.981 124.8 454.981 126L506.181 124.8C508.315 124.8 510.181 125.533 511.781 127C513.515 128.333 514.381 130.2 514.381 132.6C514.381 135 513.515 136.933 511.781 138.4C510.181 139.733 508.315 140.4 506.181 140.4L475.781 139.2Z" fill="#EEEEEE"/>
<path d="M40 169.2L9.6 170.4C6.8 170.4 4.46667 169.4 2.6 167.4C0.866667 165.267 0 163.133 0 161C0 158.733 0.266667 151.267 0.8 138.6C1.46667 125.933 1.8 112.467 1.8 98.2C1.8 83.9333 1.46667 70.9333 0.8 59.2C0.266667 47.3333 0 41.2 0 40.8C0 38 0.866667 35.5333 2.6 33.4C4.46667 31.1333 6.8 30 9.6 30C12.4 30 14.6667 31.1333 16.4 33.4C18.2667 35.5333 19.2 38 19.2 40.8C19.2 41.2 18.8667 47.3333 18.2 59.2C17.6667 70.9333 17.4 82.8667 17.4 95C17.4 107 17.4667 116.667 17.6 124C17.8667 131.333 18.2 138.2 18.6 144.6C19 151 19.2 154.8 19.2 156L44.8 155.4L70.4 154.8C72.5333 154.8 74.4 155.533 76 157C77.7333 158.333 78.6 160.2 78.6 162.6C78.6 165 77.7333 166.933 76 168.4C74.4 169.733 72.5333 170.4 70.4 170.4L40 169.2Z" fill="#EEEEEE"/>
<path d="M104.88 30L145.28 31.2L185.68 30C187.813 30 189.68 30.7333 191.28 32.2C193.013 33.5333 193.88 35.4 193.88 37.8C193.88 40.2 193.013 42.1333 191.28 43.6C189.68 44.9333 187.813 45.6 185.68 45.6L145.28 44.4C141.813 44.4 136.213 44.5333 128.48 44.8C128.48 46.4 128.346 49.2667 128.08 53.4C127.28 65.8 126.88 77.4 126.88 88.2C133.813 88.7333 140.28 89 146.28 89C152.413 89 158.613 88.8 164.88 88.4C171.28 88 175.146 87.8 176.48 87.8C177.946 87.8 179.346 88.4667 180.68 89.8C182.013 91.1333 182.68 92.8667 182.68 95C182.68 97.1333 182.013 98.9333 180.68 100.4C179.346 101.733 177.613 102.4 175.48 102.4L147.68 101.4C140.746 101.4 133.813 101.667 126.88 102.2C126.88 118.467 127.146 131.2 127.68 140.4C128.346 149.6 128.68 154.8 128.68 156L188.28 154.8C190.413 154.8 192.28 155.533 193.88 157C195.613 158.333 196.48 160.2 196.48 162.6C196.48 165 195.613 166.933 193.88 168.4C192.28 169.733 190.413 170.4 188.28 170.4L149.88 169.2C144.546 169.2 138.213 169.4 130.88 169.8C123.546 170.2 119.613 170.4 119.08 170.4C116.28 170.4 113.946 169.333 112.08 167.2C110.346 165.067 109.48 162.933 109.48 160.8C109.48 158.667 109.746 151.267 110.28 138.6C110.946 125.933 111.28 113.733 111.28 102C111.28 90.1333 110.68 71.3333 109.48 45.6H104.88C102.746 45.6 100.813 44.9333 99.0797 43.6C97.4797 42.1333 96.6797 40.2 96.6797 37.8C96.6797 35.4 97.4797 33.5333 99.0797 32.2C100.813 30.7333 102.746 30 104.88 30Z" fill="#EEEEEE"/>
</svg>
